999
DXF file generated by netDxf https://github.com/haplokuon/netDxf, Copyright(C) Daniel Carvajal, Licensed under MIT
0
SECTION
2
HEADER
9
$ACADVER
1
AC1015
9
$DWGCODEPAGE
3
ANSI_1252
9
$HANDSEED
5
78
9
$ANGBASE
50
0.0
9
$ANGDIR
70
0
9
$ATTMODE
70
1
9
$AUNITS
70
0
9
$AUPREC
70
0
9
$CECOLOR
62
256
9
$CELTSCALE
40
1.0
9
$CELTYPE
6
ByLayer
9
$CELWEIGHT
370
-1
9
$CLAYER
8
0
9
$CMLJUST
70
0
9
$CMLSCALE
40
20.0
9
$CMLSTYLE
2
Standard
9
$DIMSTYLE
2
Standard
9
$TEXTSIZE
40
2.5
9
$TEXTSTYLE
7
Standard
9
$LUNITS
70
2
9
$LUPREC
70
4
9
$MIRRTEXT
70
0
9
$EXTNAMES
290
1
9
$INSBASE
10
0.0
20
0.0
30
0.0
9
$INSUNITS
70
0
9
$LTSCALE
40
1.0
9
$LWDISPLAY
290
0
9
$PDMODE
70
0
9
$PDSIZE
40
0.0
9
$PLINEGEN
70
0
9
$PSLTSCALE
70
1
9
$SPLINESEGS
70
8
9
$SURFU
70
6
9
$SURFV
70
6
9
$TDCREATE
40
2461050.90322661
9
$TDUCREATE
40
2461050.86155998
9
$TDUPDATE
40
2461050.90322664
9
$TDUUPDATE
40
2461050.86155998
9
$TDINDWG
40
0.0
9
$UCSORG
10
0.0
20
0.0
30
0.0
9
$UCSXDIR
10
1.0
20
0.0
30
0.0
9
$UCSYDIR
10
0.0
20
1.0
30
0.0
9
$DIMADEC
70
0
9
$DIMALT
70
0
9
$DIMALTD
70
2
9
$DIMALTF
40
25.4
9
$DIMALTRND
40
0.0
9
$DIMALTTD
70
2
9
$DIMALTTZ
70
0
9
$DIMALTU
70
2
9
$DIMALTZ
70
0
9
$DIMAPOST
1

9
$DIMATFIT
70
3
9
$DIMAUNIT
70
0
9
$DIMASZ
40
0.18
9
$DIMAZIN
70
0
9
$DIMSAH
70
0
9
$DIMBLK
1

9
$DIMLDRBLK
1

9
$DIMCEN
40
0.09
9
$DIMCLRD
70
0
9
$DIMCLRE
70
0
9
$DIMCLRT
70
0
9
$DIMDEC
70
4
9
$DIMDLE
40
0.0
9
$DIMDLI
40
0.38
9
$DIMDSEP
70
46
9
$DIMEXE
40
0.18
9
$DIMEXO
40
0.0625
9
$DIMFXLON
70
0
9
$DIMFXL
40
1.0
9
$DIMGAP
40
0.09
9
$DIMJUST
70
0
9
$DIMLFAC
40
1.0
9
$DIMLUNIT
70
2
9
$DIMLWD
70
-2
9
$DIMLWE
70
-2
9
$DIMPOST
1

9
$DIMRND
40
0.0
9
$DIMSCALE
40
1.0
9
$DIMSD1
70
0
9
$DIMSD2
70
0
9
$DIMSE1
70
0
9
$DIMSE2
70
0
9
$DIMSOXD
70
0
9
$DIMTAD
70
0
9
$DIMTDEC
70
4
9
$DIMTFAC
40
1.0
9
$DIMTIH
70
0
9
$DIMTIX
70
0
9
$DIMTM
40
0.0
9
$DIMTMOVE
70
0
9
$DIMTOFL
70
0
9
$DIMTOH
70
0
9
$DIMTOL
70
0
9
$DIMLIM
70
0
9
$DIMTOLJ
70
1
9
$DIMTP
40
0.0
9
$DIMTXT
40
0.18
9
$DIMTXTDIRECTION
70
0
9
$DIMTZIN
70
0
9
$DIMZIN
70
0
9
$DIMFRAC
70
0
9
$DIMLTYPE
6
ByBlock
9
$DIMLTEX1
6
ByBlock
9
$DIMLTEX2
6
ByBlock
0
ENDSEC
0
SECTION
2
CLASSES
0
CLASS
1
RASTERVARIABLES
2
AcDbRasterVariables
3
ISM
90
0
280
0
281
0
0
ENDSEC
0
SECTION
2
TABLES
0
TABLE
2
APPID
5
4
330
0
100
AcDbSymbolTable
70
5
0
APPID
5
19
330
4
100
AcDbSymbolTableRecord
100
AcDbRegAppTableRecord
2
ACAD
70
0
0
APPID
5
72
330
4
100
AcDbSymbolTableRecord
100
AcDbRegAppTableRecord
2
AcCmTransparency
70
0
0
APPID
5
73
330
4
100
AcDbSymbolTableRecord
100
AcDbRegAppTableRecord
2
AcAecLayerStandard
70
0
0
APPID
5
74
330
4
100
AcDbSymbolTableRecord
100
AcDbRegAppTableRecord
2
GradientColor1ACI
70
0
0
APPID
5
75
330
4
100
AcDbSymbolTableRecord
100
AcDbRegAppTableRecord
2
GradientColor2ACI
70
0
0
ENDTAB
0
TABLE
2
VPORT
5
1
330
0
100
AcDbSymbolTable
70
1
0
VPORT
5
2
330
1
100
AcDbSymbolTableRecord
100
AcDbViewportTableRecord
2
*Active
70
0
10
0.0
20
0.0
11
1.0
21
1.0
12
0.0
22
0.0
13
0.0
23
0.0
14
0.5
24
0.5
15
10.0
25
10.0
16
0.0
26
0.0
36
1.0
17
0.0
27
0.0
37
0.0
40
10.0
41
1.0
75
0
76
1
0
ENDTAB
0
TABLE
2
LTYPE
5
7
330
0
100
AcDbSymbolTable
70
3
0
LTYPE
5
15
330
7
100
AcDbSymbolTableRecord
100
AcDbLinetypeTableRecord
2
Continuous
70
0
3
Solid line
72
65
73
0
40
0.0
0
LTYPE
5
16
330
7
100
AcDbSymbolTableRecord
100
AcDbLinetypeTableRecord
2
ByLayer
70
0
3

72
65
73
0
40
0.0
0
LTYPE
5
17
330
7
100
AcDbSymbolTableRecord
100
AcDbLinetypeTableRecord
2
ByBlock
70
0
3

72
65
73
0
40
0.0
0
ENDTAB
0
TABLE
2
LAYER
5
5
102
{ACAD_XDICTIONARY
360
6
102
}
330
0
100
AcDbSymbolTable
70
5
0
LAYER
5
14
330
5
100
AcDbSymbolTableRecord
100
AcDbLayerTableRecord
2
0
70
0
62
7
6
Continuous
290
1
370
-3
390
0
0
LAYER
5
22
330
5
100
AcDbSymbolTableRecord
100
AcDbLayerTableRecord
2
RedLayer
70
0
62
1
6
Continuous
290
1
370
-3
390
0
0
LAYER
5
23
330
5
100
AcDbSymbolTableRecord
100
AcDbLayerTableRecord
2
BlackLayer
70
0
62
250
6
Continuous
290
1
370
-3
390
0
0
LAYER
5
24
330
5
100
AcDbSymbolTableRecord
100
AcDbLayerTableRecord
2
HolesLayer
70
0
62
5
6
Continuous
290
1
370
-3
390
0
0
LAYER
5
25
330
5
100
AcDbSymbolTableRecord
100
AcDbLayerTableRecord
2
PCBLayer
70
0
62
4
6
Continuous
290
1
370
-3
390
0
0
ENDTAB
0
TABLE
2
STYLE
5
8
330
0
100
AcDbSymbolTable
70
1
0
STYLE
5
18
330
8
100
AcDbSymbolTableRecord
100
AcDbTextStyleTableRecord
2
Standard
3
simplex.shx
70
0
71
0
40
0.0
41
1.0
42
0.0
50
0.0
0
ENDTAB
0
TABLE
2
DIMSTYLE
5
A
330
0
100
AcDbSymbolTable
70
1
100
AcDbDimStyleTable
0
DIMSTYLE
105
1A
330
A
100
AcDbSymbolTableRecord
100
AcDbDimStyleTableRecord
2
Standard
3

4

40
1.0
41
0.18
42
0.0625
43
0.38
44
0.18
45
0.0
46
0.0
47
0.0
48
0.0
49
1.0
70
0
71
0
72
0
73
0
74
0
75
0
76
0
77
0
78
0
79
0
140
0.18
141
0.09
143
25.4
144
1.0
146
1.0
147
0.09
148
0.0
170
0
171
2
172
0
174
0
175
0
176
0
177
0
178
0
179
0
271
4
272
4
273
2
274
2
275
0
276
0
277
2
278
46
279
0
280
0
281
0
282
0
283
1
284
0
285
0
286
0
289
3
290
0
294
0
340
18
173
0
345
17
346
17
347
17
371
-2
372
-2
0
ENDTAB
0
TABLE
2
VIEW
5
3
330
0
100
AcDbSymbolTable
70
0
0
ENDTAB
0
TABLE
2
UCS
5
C
330
0
100
AcDbSymbolTable
70
0
0
ENDTAB
0
TABLE
2
BLOCK_RECORD
5
D
330
0
100
AcDbSymbolTable
70
2
0
BLOCK_RECORD
5
1C
330
D
100
AcDbSymbolTableRecord
100
AcDbBlockTableRecord
2
*Model_Space
340
20
0
BLOCK_RECORD
5
6C
330
D
100
AcDbSymbolTableRecord
100
AcDbBlockTableRecord
2
*Paper_Space
340
71
0
ENDTAB
0
ENDSEC
0
SECTION
2
BLOCKS
0
BLOCK
5
1E
330
1C
100
AcDbEntity
67
0
8
0
100
AcDbBlockBegin
2
*Model_Space
70
0
10
0.0
20
0.0
30
0.0
3
*Model_Space
4

0
ENDBLK
5
1D
330
1C
100
AcDbEntity
8
0
100
AcDbBlockEnd
0
BLOCK
5
6E
330
6C
100
AcDbEntity
67
1
8
0
100
AcDbBlockBegin
2
*Paper_Space
70
0
10
0.0
20
0.0
30
0.0
3
*Paper_Space
4

0
ENDBLK
5
6D
330
6C
100
AcDbEntity
8
0
100
AcDbBlockEnd
0
ENDSEC
0
SECTION
2
ENTITIES
0
LWPOLYLINE
5
26
330
1C
100
AcDbEntity
67
0
8
BlackLayer
62
4
6
ByLayer
370
-1
48
1.0
60
0
100
AcDbPolyline
90
8
70
1
38
0.0
39
0.0
10
0.0
20
3.0
40
0.0
41
0.0
42
0.414213588857773
10
3.0
20
0.0
40
0.0
41
0.0
42
0.0
10
178.0
20
0.0
40
0.0
41
0.0
42
0.414213588857771
10
181.0
20
3.0
40
0.0
41
0.0
42
0.0
10
181.0
20
178.0
40
0.0
41
0.0
42
0.41421358885777
10
178.0
20
181.0
40
0.0
41
0.0
42
0.0
10
3.0
20
181.0
40
0.0
41
0.0
42
0.414213588857771
10
0.0
20
178.0
40
0.0
41
0.0
42
0.0
210
0.0
220
0.0
230
1.0
0
LWPOLYLINE
5
27
330
1C
100
AcDbEntity
67
0
8
BlackLayer
62
4
6
ByLayer
370
-1
48
1.0
60
0
100
AcDbPolyline
90
8
70
1
38
0.0
39
0.0
10
0.0
20
3.0
40
0.0
41
0.0
42
0.414213588857773
10
3.0
20
0.0
40
0.0
41
0.0
42
0.0
10
15.6
20
0.0
40
0.0
41
0.0
42
0.414213588857773
10
18.6
20
3.0
40
0.0
41
0.0
42
0.0
10
18.6
20
178.0
40
0.0
41
0.0
42
0.414213588857771
10
15.6
20
181.0
40
0.0
41
0.0
42
0.0
10
3.0
20
181.0
40
0.0
41
0.0
42
0.414213588857771
10
0.0
20
178.0
40
0.0
41
0.0
42
0.0
210
0.0
220
0.0
230
1.0
0
LWPOLYLINE
5
28
330
1C
100
AcDbEntity
67
0
8
BlackLayer
62
4
6
ByLayer
370
-1
48
1.0
60
0
100
AcDbPolyline
90
8
70
1
38
0.0
39
0.0
10
162.4
20
3.0
40
0.0
41
0.0
42
0.414213588857771
10
165.4
20
0.0
40
0.0
41
0.0
42
0.0
10
178.0
20
0.0
40
0.0
41
0.0
42
0.414213588857771
10
181.0
20
3.0
40
0.0
41
0.0
42
0.0
10
181.0
20
178.0
40
0.0
41
0.0
42
0.41421358885777
10
178.0
20
181.0
40
0.0
41
0.0
42
0.0
10
165.4
20
181.0
40
0.0
41
0.0
42
0.41421358885777
10
162.4
20
178.0
40
0.0
41
0.0
42
0.0
210
0.0
220
0.0
230
1.0
0
LWPOLYLINE
5
29
330
1C
100
AcDbEntity
67
0
8
BlackLayer
62
4
6
ByLayer
370
-1
48
1.0
60
0
100
AcDbPolyline
90
6
70
1
38
0.0
39
0.0
10
6.2
20
18.6
40
0.0
41
0.0
42
1.0
10
12.4
20
18.6
40
0.0
41
0.0
42
0.0
10
12.4
20
162.4
40
0.0
41
0.0
42
0.0
10
12.4
20
162.4
40
0.0
41
0.0
42
1.0
10
6.2
20
162.4
40
0.0
41
0.0
42
0.0
10
6.2
20
18.6
40
0.0
41
0.0
42
0.0
210
0.0
220
0.0
230
1.0
0
LWPOLYLINE
5
2A
330
1C
100
AcDbEntity
67
0
8
BlackLayer
62
4
6
ByLayer
370
-1
48
1.0
60
0
100
AcDbPolyline
90
6
70
1
38
0.0
39
0.0
10
168.6
20
18.6
40
0.0
41
0.0
42
1.0
10
174.8
20
18.6
40
0.0
41
0.0
42
0.0
10
174.8
20
162.4
40
0.0
41
0.0
42
0.0
10
174.8
20
162.4
40
0.0
41
0.0
42
1.0
10
168.6
20
162.4
40
0.0
41
0.0
42
0.0
10
168.6
20
18.6
40
0.0
41
0.0
42
0.0
210
0.0
220
0.0
230
1.0
0
LWPOLYLINE
5
2B
330
1C
100
AcDbEntity
67
0
8
BlackLayer
62
4
6
ByLayer
370
-1
48
1.0
60
0
100
AcDbPolyline
90
8
70
1
38
0.0
39
0.0
10
18.6
20
3.0
40
0.0
41
0.0
42
0.414213588857773
10
21.6
20
0.0
40
0.0
41
0.0
42
0.0
10
159.4
20
0.0
40
0.0
41
0.0
42
0.414213588857771
10
162.4
20
3.0
40
0.0
41
0.0
42
0.0
10
162.4
20
178.0
40
0.0
41
0.0
42
0.41421358885777
10
159.4
20
181.0
40
0.0
41
0.0
42
0.0
10
21.6
20
181.0
40
0.0
41
0.0
42
0.414213588857771
10
18.6
20
178.0
40
0.0
41
0.0
42
0.0
210
0.0
220
0.0
230
1.0
0
LWPOLYLINE
5
2C
330
1C
100
AcDbEntity
67
0
8
BlackLayer
62
4
6
ByLayer
370
-1
48
1.0
60
0
100
AcDbPolyline
90
8
70
1
38
0.0
39
0.0
10
23.6
20
8.0
40
0.0
41
0.0
42
0.414213588857773
10
26.6
20
5.0
40
0.0
41
0.0
42
0.0
10
154.4
20
5.0
40
0.0
41
0.0
42
0.414213588857771
10
157.4
20
8.0
40
0.0
41
0.0
42
0.0
10
157.4
20
173.0
40
0.0
41
0.0
42
0.41421358885777
10
154.4
20
176.0
40
0.0
41
0.0
42
0.0
10
26.6
20
176.0
40
0.0
41
0.0
42
0.414213588857771
10
23.6
20
173.0
40
0.0
41
0.0
42
0.0
210
0.0
220
0.0
230
1.0
0
LWPOLYLINE
5
2D
330
1C
100
AcDbEntity
67
0
8
BlackLayer
62
4
6
ByLayer
370
-1
48
1.0
60
0
100
AcDbPolyline
90
8
70
1
38
0.0
39
0.0
10
27.2
20
11.6
40
0.0
41
0.0
42
0.414213588857773
10
30.2
20
8.6
40
0.0
41
0.0
42
0.0
10
39.2
20
8.6
40
0.0
41
0.0
42
0.414213588857773
10
42.2
20
11.6
40
0.0
41
0.0
42
0.0
10
42.2
20
20.6
40
0.0
41
0.0
42
0.414213588857773
10
39.2
20
23.6
40
0.0
41
0.0
42
0.0
10
30.2
20
23.6
40
0.0
41
0.0
42
0.414213588857773
10
27.2
20
20.6
40
0.0
41
0.0
42
0.0
210
0.0
220
0.0
230
1.0
0
LWPOLYLINE
5
2E
330
1C
100
AcDbEntity
67
0
8
BlackLayer
62
4
6
ByLayer
370
-1
48
1.0
60
0
100
AcDbPolyline
90
8
70
1
38
0.0
39
0.0
10
27.2
20
30.2
40
0.0
41
0.0
42
0.414213588857773
10
30.2
20
27.2
40
0.0
41
0.0
42
0.0
10
39.2
20
27.2
40
0.0
41
0.0
42
0.414213588857773
10
42.2
20
30.2
40
0.0
41
0.0
42
0.0
10
42.2
20
39.2
40
0.0
41
0.0
42
0.414213588857773
10
39.2
20
42.2
40
0.0
41
0.0
42
0.0
10
30.2
20
42.2
40
0.0
41
0.0
42
0.414213588857773
10
27.2
20
39.2
40
0.0
41
0.0
42
0.0
210
0.0
220
0.0
230
1.0
0
LWPOLYLINE
5
2F
330
1C
100
AcDbEntity
67
0
8
BlackLayer
62
4
6
ByLayer
370
-1
48
1.0
60
0
100
AcDbPolyline
90
8
70
1
38
0.0
39
0.0
10
27.2
20
48.8
40
0.0
41
0.0
42
0.414213588857773
10
30.2
20
45.8
40
0.0
41
0.0
42
0.0
10
39.2
20
45.8
40
0.0
41
0.0
42
0.414213588857773
10
42.2
20
48.8
40
0.0
41
0.0
42
0.0
10
42.2
20
57.8
40
0.0
41
0.0
42
0.414213588857773
10
39.2
20
60.8
40
0.0
41
0.0
42
0.0
10
30.2
20
60.8
40
0.0
41
0.0
42
0.414213588857773
10
27.2
20
57.8
40
0.0
41
0.0
42
0.0
210
0.0
220
0.0
230
1.0
0
LWPOLYLINE
5
30
330
1C
100
AcDbEntity
67
0
8
BlackLayer
62
4
6
ByLayer
370
-1
48
1.0
60
0
100
AcDbPolyline
90
8
70
1
38
0.0
39
0.0
10
27.2
20
67.4
40
0.0
41
0.0
42
0.414213588857773
10
30.2
20
64.4
40
0.0
41
0.0
42
0.0
10
39.2
20
64.4
40
0.0
41
0.0
42
0.414213588857773
10
42.2
20
67.4
40
0.0
41
0.0
42
0.0
10
42.2
20
76.4
40
0.0
41
0.0
42
0.414213588857773
10
39.2
20
79.4
40
0.0
41
0.0
42
0.0
10
30.2
20
79.4
40
0.0
41
0.0
42
0.414213588857773
10
27.2
20
76.4
40
0.0
41
0.0
42
0.0
210
0.0
220
0.0
230
1.0
0
LWPOLYLINE
5
31
330
1C
100
AcDbEntity
67
0
8
BlackLayer
62
4
6
ByLayer
370
-1
48
1.0
60
0
100
AcDbPolyline
90
8
70
1
38
0.0
39
0.0
10
27.2
20
86.0
40
0.0
41
0.0
42
0.414213588857773
10
30.2
20
83.0
40
0.0
41
0.0
42
0.0
10
39.2
20
83.0
40
0.0
41
0.0
42
0.414213588857773
10
42.2
20
86.0
40
0.0
41
0.0
42
0.0
10
42.2
20
95.0
40
0.0
41
0.0
42
0.414213588857773
10
39.2
20
98.0
40
0.0
41
0.0
42
0.0
10
30.2
20
98.0
40
0.0
41
0.0
42
0.414213588857773
10
27.2
20
95.0
40
0.0
41
0.0
42
0.0
210
0.0
220
0.0
230
1.0
0
LWPOLYLINE
5
32
330
1C
100
AcDbEntity
67
0
8
BlackLayer
62
4
6
ByLayer
370
-1
48
1.0
60
0
100
AcDbPolyline
90
8
70
1
38
0.0
39
0.0
10
27.2
20
104.6
40
0.0
41
0.0
42
0.414213588857773
10
30.2
20
101.6
40
0.0
41
0.0
42
0.0
10
39.2
20
101.6
40
0.0
41
0.0
42
0.414213588857773
10
42.2
20
104.6
40
0.0
41
0.0
42
0.0
10
42.2
20
113.6
40
0.0
41
0.0
42
0.414213588857773
10
39.2
20
116.6
40
0.0
41
0.0
42
0.0
10
30.2
20
116.6
40
0.0
41
0.0
42
0.414213588857773
10
27.2
20
113.6
40
0.0
41
0.0
42
0.0
210
0.0
220
0.0
230
1.0
0
LWPOLYLINE
5
33
330
1C
100
AcDbEntity
67
0
8
BlackLayer
62
4
6
ByLayer
370
-1
48
1.0
60
0
100
AcDbPolyline
90
8
70
1
38
0.0
39
0.0
10
27.2
20
123.2
40
0.0
41
0.0
42
0.414213588857773
10
30.2
20
120.2
40
0.0
41
0.0
42
0.0
10
39.2
20
120.2
40
0.0
41
0.0
42
0.414213588857773
10
42.2
20
123.2
40
0.0
41
0.0
42
0.0
10
42.2
20
132.2
40
0.0
41
0.0
42
0.414213588857771
10
39.2
20
135.2
40
0.0
41
0.0
42
0.0
10
30.2
20
135.2
40
0.0
41
0.0
42
0.414213588857771
10
27.2
20
132.2
40
0.0
41
0.0
42
0.0
210
0.0
220
0.0
230
1.0
0
LWPOLYLINE
5
34
330
1C
100
AcDbEntity
67
0
8
BlackLayer
62
4
6
ByLayer
370
-1
48
1.0
60
0
100
AcDbPolyline
90
8
70
1
38
0.0
39
0.0
10
27.2
20
141.8
40
0.0
41
0.0
42
0.414213588857771
10
30.2
20
138.8
40
0.0
41
0.0
42
0.0
10
39.2
20
138.8
40
0.0
41
0.0
42
0.414213588857771
10
42.2
20
141.8
40
0.0
41
0.0
42
0.0
10
42.2
20
150.8
40
0.0
41
0.0
42
0.414213588857771
10
39.2
20
153.8
40
0.0
41
0.0
42
0.0
10
30.2
20
153.8
40
0.0
41
0.0
42
0.414213588857771
10
27.2
20
150.8
40
0.0
41
0.0
42
0.0
210
0.0
220
0.0
230
1.0
0
LWPOLYLINE
5
35
330
1C
100
AcDbEntity
67
0
8
BlackLayer
62
4
6
ByLayer
370
-1
48
1.0
60
0
100
AcDbPolyline
90
8
70
1
38
0.0
39
0.0
10
27.2
20
160.4
40
0.0
41
0.0
42
0.414213588857771
10
30.2
20
157.4
40
0.0
41
0.0
42
0.0
10
39.2
20
157.4
40
0.0
41
0.0
42
0.414213588857771
10
42.2
20
160.4
40
0.0
41
0.0
42
0.0
10
42.2
20
169.4
40
0.0
41
0.0
42
0.414213588857771
10
39.2
20
172.4
40
0.0
41
0.0
42
0.0
10
30.2
20
172.4
40
0.0
41
0.0
42
0.414213588857771
10
27.2
20
169.4
40
0.0
41
0.0
42
0.0
210
0.0
220
0.0
230
1.0
0
LWPOLYLINE
5
36
330
1C
100
AcDbEntity
67
0
8
BlackLayer
62
4
6
ByLayer
370
-1
48
1.0
60
0
100
AcDbPolyline
90
8
70
1
38
0.0
39
0.0
10
45.8
20
11.6
40
0.0
41
0.0
42
0.414213588857773
10
48.8
20
8.6
40
0.0
41
0.0
42
0.0
10
57.8
20
8.6
40
0.0
41
0.0
42
0.414213588857773
10
60.8
20
11.6
40
0.0
41
0.0
42
0.0
10
60.8
20
20.6
40
0.0
41
0.0
42
0.414213588857773
10
57.8
20
23.6
40
0.0
41
0.0
42
0.0
10
48.8
20
23.6
40
0.0
41
0.0
42
0.414213588857773
10
45.8
20
20.6
40
0.0
41
0.0
42
0.0
210
0.0
220
0.0
230
1.0
0
LWPOLYLINE
5
37
330
1C
100
AcDbEntity
67
0
8
BlackLayer
62
4
6
ByLayer
370
-1
48
1.0
60
0
100
AcDbPolyline
90
8
70
1
38
0.0
39
0.0
10
45.8
20
30.2
40
0.0
41
0.0
42
0.414213588857773
10
48.8
20
27.2
40
0.0
41
0.0
42
0.0
10
57.8
20
27.2
40
0.0
41
0.0
42
0.414213588857773
10
60.8
20
30.2
40
0.0
41
0.0
42
0.0
10
60.8
20
39.2
40
0.0
41
0.0
42
0.414213588857773
10
57.8
20
42.2
40
0.0
41
0.0
42
0.0
10
48.8
20
42.2
40
0.0
41
0.0
42
0.414213588857773
10
45.8
20
39.2
40
0.0
41
0.0
42
0.0
210
0.0
220
0.0
230
1.0
0
LWPOLYLINE
5
38
330
1C
100
AcDbEntity
67
0
8
BlackLayer
62
4
6
ByLayer
370
-1
48
1.0
60
0
100
AcDbPolyline
90
8
70
1
38
0.0
39
0.0
10
45.8
20
48.8
40
0.0
41
0.0
42
0.414213588857773
10
48.8
20
45.8
40
0.0
41
0.0
42
0.0
10
57.8
20
45.8
40
0.0
41
0.0
42
0.414213588857773
10
60.8
20
48.8
40
0.0
41
0.0
42
0.0
10
60.8
20
57.8
40
0.0
41
0.0
42
0.414213588857773
10
57.8
20
60.8
40
0.0
41
0.0
42
0.0
10
48.8
20
60.8
40
0.0
41
0.0
42
0.414213588857773
10
45.8
20
57.8
40
0.0
41
0.0
42
0.0
210
0.0
220
0.0
230
1.0
0
LWPOLYLINE
5
39
330
1C
100
AcDbEntity
67
0
8
BlackLayer
62
4
6
ByLayer
370
-1
48
1.0
60
0
100
AcDbPolyline
90
8
70
1
38
0.0
39
0.0
10
45.8
20
67.4
40
0.0
41
0.0
42
0.414213588857773
10
48.8
20
64.4
40
0.0
41
0.0
42
0.0
10
57.8
20
64.4
40
0.0
41
0.0
42
0.414213588857773
10
60.8
20
67.4
40
0.0
41
0.0
42
0.0
10
60.8
20
76.4
40
0.0
41
0.0
42
0.414213588857773
10
57.8
20
79.4
40
0.0
41
0.0
42
0.0
10
48.8
20
79.4
40
0.0
41
0.0
42
0.414213588857773
10
45.8
20
76.4
40
0.0
41
0.0
42
0.0
210
0.0
220
0.0
230
1.0
0
LWPOLYLINE
5
3A
330
1C
100
AcDbEntity
67
0
8
BlackLayer
62
4
6
ByLayer
370
-1
48
1.0
60
0
100
AcDbPolyline
90
8
70
1
38
0.0
39
0.0
10
45.8
20
86.0
40
0.0
41
0.0
42
0.414213588857773
10
48.8
20
83.0
40
0.0
41
0.0
42
0.0
10
57.8
20
83.0
40
0.0
41
0.0
42
0.414213588857773
10
60.8
20
86.0
40
0.0
41
0.0
42
0.0
10
60.8
20
95.0
40
0.0
41
0.0
42
0.414213588857773
10
57.8
20
98.0
40
0.0
41
0.0
42
0.0
10
48.8
20
98.0
40
0.0
41
0.0
42
0.414213588857773
10
45.8
20
95.0
40
0.0
41
0.0
42
0.0
210
0.0
220
0.0
230
1.0
0
LWPOLYLINE
5
3B
330
1C
100
AcDbEntity
67
0
8
BlackLayer
62
4
6
ByLayer
370
-1
48
1.0
60
0
100
AcDbPolyline
90
8
70
1
38
0.0
39
0.0
10
45.8
20
104.6
40
0.0
41
0.0
42
0.414213588857773
10
48.8
20
101.6
40
0.0
41
0.0
42
0.0
10
57.8
20
101.6
40
0.0
41
0.0
42
0.414213588857773
10
60.8
20
104.6
40
0.0
41
0.0
42
0.0
10
60.8
20
113.6
40
0.0
41
0.0
42
0.414213588857773
10
57.8
20
116.6
40
0.0
41
0.0
42
0.0
10
48.8
20
116.6
40
0.0
41
0.0
42
0.414213588857773
10
45.8
20
113.6
40
0.0
41
0.0
42
0.0
210
0.0
220
0.0
230
1.0
0
LWPOLYLINE
5
3C
330
1C
100
AcDbEntity
67
0
8
BlackLayer
62
4
6
ByLayer
370
-1
48
1.0
60
0
100
AcDbPolyline
90
8
70
1
38
0.0
39
0.0
10
45.8
20
123.2
40
0.0
41
0.0
42
0.414213588857773
10
48.8
20
120.2
40
0.0
41
0.0
42
0.0
10
57.8
20
120.2
40
0.0
41
0.0
42
0.414213588857773
10
60.8
20
123.2
40
0.0
41
0.0
42
0.0
10
60.8
20
132.2
40
0.0
41
0.0
42
0.414213588857771
10
57.8
20
135.2
40
0.0
41
0.0
42
0.0
10
48.8
20
135.2
40
0.0
41
0.0
42
0.414213588857771
10
45.8
20
132.2
40
0.0
41
0.0
42
0.0
210
0.0
220
0.0
230
1.0
0
LWPOLYLINE
5
3D
330
1C
100
AcDbEntity
67
0
8
BlackLayer
62
4
6
ByLayer
370
-1
48
1.0
60
0
100
AcDbPolyline
90
8
70
1
38
0.0
39
0.0
10
45.8
20
141.8
40
0.0
41
0.0
42
0.414213588857771
10
48.8
20
138.8
40
0.0
41
0.0
42
0.0
10
57.8
20
138.8
40
0.0
41
0.0
42
0.414213588857771
10
60.8
20
141.8
40
0.0
41
0.0
42
0.0
10
60.8
20
150.8
40
0.0
41
0.0
42
0.414213588857771
10
57.8
20
153.8
40
0.0
41
0.0
42
0.0
10
48.8
20
153.8
40
0.0
41
0.0
42
0.414213588857771
10
45.8
20
150.8
40
0.0
41
0.0
42
0.0
210
0.0
220
0.0
230
1.0
0
LWPOLYLINE
5
3E
330
1C
100
AcDbEntity
67
0
8
BlackLayer
62
4
6
ByLayer
370
-1
48
1.0
60
0
100
AcDbPolyline
90
8
70
1
38
0.0
39
0.0
10
45.8
20
160.4
40
0.0
41
0.0
42
0.414213588857771
10
48.8
20
157.4
40
0.0
41
0.0
42
0.0
10
57.8
20
157.4
40
0.0
41
0.0
42
0.414213588857771
10
60.8
20
160.4
40
0.0
41
0.0
42
0.0
10
60.8
20
169.4
40
0.0
41
0.0
42
0.414213588857771
10
57.8
20
172.4
40
0.0
41
0.0
42
0.0
10
48.8
20
172.4
40
0.0
41
0.0
42
0.414213588857771
10
45.8
20
169.4
40
0.0
41
0.0
42
0.0
210
0.0
220
0.0
230
1.0
0
LWPOLYLINE
5
3F
330
1C
100
AcDbEntity
67
0
8
BlackLayer
62
4
6
ByLayer
370
-1
48
1.0
60
0
100
AcDbPolyline
90
8
70
1
38
0.0
39
0.0
10
64.4
20
11.6
40
0.0
41
0.0
42
0.414213588857773
10
67.4
20
8.6
40
0.0
41
0.0
42
0.0
10
76.4
20
8.6
40
0.0
41
0.0
42
0.414213588857773
10
79.4
20
11.6
40
0.0
41
0.0
42
0.0
10
79.4
20
20.6
40
0.0
41
0.0
42
0.414213588857773
10
76.4
20
23.6
40
0.0
41
0.0
42
0.0
10
67.4
20
23.6
40
0.0
41
0.0
42
0.414213588857773
10
64.4
20
20.6
40
0.0
41
0.0
42
0.0
210
0.0
220
0.0
230
1.0
0
LWPOLYLINE
5
40
330
1C
100
AcDbEntity
67
0
8
BlackLayer
62
4
6
ByLayer
370
-1
48
1.0
60
0
100
AcDbPolyline
90
8
70
1
38
0.0
39
0.0
10
64.4
20
30.2
40
0.0
41
0.0
42
0.414213588857773
10
67.4
20
27.2
40
0.0
41
0.0
42
0.0
10
76.4
20
27.2
40
0.0
41
0.0
42
0.414213588857773
10
79.4
20
30.2
40
0.0
41
0.0
42
0.0
10
79.4
20
39.2
40
0.0
41
0.0
42
0.414213588857773
10
76.4
20
42.2
40
0.0
41
0.0
42
0.0
10
67.4
20
42.2
40
0.0
41
0.0
42
0.414213588857773
10
64.4
20
39.2
40
0.0
41
0.0
42
0.0
210
0.0
220
0.0
230
1.0
0
LWPOLYLINE
5
41
330
1C
100
AcDbEntity
67
0
8
BlackLayer
62
4
6
ByLayer
370
-1
48
1.0
60
0
100
AcDbPolyline
90
8
70
1
38
0.0
39
0.0
10
64.4
20
48.8
40
0.0
41
0.0
42
0.414213588857773
10
67.4
20
45.8
40
0.0
41
0.0
42
0.0
10
76.4
20
45.8
40
0.0
41
0.0
42
0.414213588857773
10
79.4
20
48.8
40
0.0
41
0.0
42
0.0
10
79.4
20
57.8
40
0.0
41
0.0
42
0.414213588857773
10
76.4
20
60.8
40
0.0
41
0.0
42
0.0
10
67.4
20
60.8
40
0.0
41
0.0
42
0.414213588857773
10
64.4
20
57.8
40
0.0
41
0.0
42
0.0
210
0.0
220
0.0
230
1.0
0
LWPOLYLINE
5
42
330
1C
100
AcDbEntity
67
0
8
BlackLayer
62
4
6
ByLayer
370
-1
48
1.0
60
0
100
AcDbPolyline
90
8
70
1
38
0.0
39
0.0
10
64.4
20
67.4
40
0.0
41
0.0
42
0.414213588857773
10
67.4
20
64.4
40
0.0
41
0.0
42
0.0
10
76.4
20
64.4
40
0.0
41
0.0
42
0.414213588857773
10
79.4
20
67.4
40
0.0
41
0.0
42
0.0
10
79.4
20
76.4
40
0.0
41
0.0
42
0.414213588857773
10
76.4
20
79.4
40
0.0
41
0.0
42
0.0
10
67.4
20
79.4
40
0.0
41
0.0
42
0.414213588857773
10
64.4
20
76.4
40
0.0
41
0.0
42
0.0
210
0.0
220
0.0
230
1.0
0
LWPOLYLINE
5
43
330
1C
100
AcDbEntity
67
0
8
BlackLayer
62
4
6
ByLayer
370
-1
48
1.0
60
0
100
AcDbPolyline
90
8
70
1
38
0.0
39
0.0
10
64.4
20
86.0
40
0.0
41
0.0
42
0.414213588857773
10
67.4
20
83.0
40
0.0
41
0.0
42
0.0
10
76.4
20
83.0
40
0.0
41
0.0
42
0.414213588857773
10
79.4
20
86.0
40
0.0
41
0.0
42
0.0
10
79.4
20
95.0
40
0.0
41
0.0
42
0.414213588857773
10
76.4
20
98.0
40
0.0
41
0.0
42
0.0
10
67.4
20
98.0
40
0.0
41
0.0
42
0.414213588857773
10
64.4
20
95.0
40
0.0
41
0.0
42
0.0
210
0.0
220
0.0
230
1.0
0
LWPOLYLINE
5
44
330
1C
100
AcDbEntity
67
0
8
BlackLayer
62
4
6
ByLayer
370
-1
48
1.0
60
0
100
AcDbPolyline
90
8
70
1
38
0.0
39
0.0
10
64.4
20
104.6
40
0.0
41
0.0
42
0.414213588857773
10
67.4
20
101.6
40
0.0
41
0.0
42
0.0
10
76.4
20
101.6
40
0.0
41
0.0
42
0.414213588857773
10
79.4
20
104.6
40
0.0
41
0.0
42
0.0
10
79.4
20
113.6
40
0.0
41
0.0
42
0.414213588857773
10
76.4
20
116.6
40
0.0
41
0.0
42
0.0
10
67.4
20
116.6
40
0.0
41
0.0
42
0.414213588857773
10
64.4
20
113.6
40
0.0
41
0.0
42
0.0
210
0.0
220
0.0
230
1.0
0
LWPOLYLINE
5
45
330
1C
100
AcDbEntity
67
0
8
BlackLayer
62
4
6
ByLayer
370
-1
48
1.0
60
0
100
AcDbPolyline
90
8
70
1
38
0.0
39
0.0
10
64.4
20
123.2
40
0.0
41
0.0
42
0.414213588857773
10
67.4
20
120.2
40
0.0
41
0.0
42
0.0
10
76.4
20
120.2
40
0.0
41
0.0
42
0.414213588857773
10
79.4
20
123.2
40
0.0
41
0.0
42
0.0
10
79.4
20
132.2
40
0.0
41
0.0
42
0.414213588857771
10
76.4
20
135.2
40
0.0
41
0.0
42
0.0
10
67.4
20
135.2
40
0.0
41
0.0
42
0.414213588857771
10
64.4
20
132.2
40
0.0
41
0.0
42
0.0
210
0.0
220
0.0
230
1.0
0
LWPOLYLINE
5
46
330
1C
100
AcDbEntity
67
0
8
BlackLayer
62
4
6
ByLayer
370
-1
48
1.0
60
0
100
AcDbPolyline
90
8
70
1
38
0.0
39
0.0
10
64.4
20
141.8
40
0.0
41
0.0
42
0.414213588857771
10
67.4
20
138.8
40
0.0
41
0.0
42
0.0
10
76.4
20
138.8
40
0.0
41
0.0
42
0.414213588857771
10
79.4
20
141.8
40
0.0
41
0.0
42
0.0
10
79.4
20
150.8
40
0.0
41
0.0
42
0.414213588857771
10
76.4
20
153.8
40
0.0
41
0.0
42
0.0
10
67.4
20
153.8
40
0.0
41
0.0
42
0.414213588857771
10
64.4
20
150.8
40
0.0
41
0.0
42
0.0
210
0.0
220
0.0
230
1.0
0
LWPOLYLINE
5
47
330
1C
100
AcDbEntity
67
0
8
BlackLayer
62
4
6
ByLayer
370
-1
48
1.0
60
0
100
AcDbPolyline
90
8
70
1
38
0.0
39
0.0
10
64.4
20
160.4
40
0.0
41
0.0
42
0.414213588857771
10
67.4
20
157.4
40
0.0
41
0.0
42
0.0
10
76.4
20
157.4
40
0.0
41
0.0
42
0.414213588857771
10
79.4
20
160.4
40
0.0
41
0.0
42
0.0
10
79.4
20
169.4
40
0.0
41
0.0
42
0.414213588857771
10
76.4
20
172.4
40
0.0
41
0.0
42
0.0
10
67.4
20
172.4
40
0.0
41
0.0
42
0.414213588857771
10
64.4
20
169.4
40
0.0
41
0.0
42
0.0
210
0.0
220
0.0
230
1.0
0
LWPOLYLINE
5
48
330
1C
100
AcDbEntity
67
0
8
BlackLayer
62
4
6
ByLayer
370
-1
48
1.0
60
0
100
AcDbPolyline
90
8
70
1
38
0.0
39
0.0
10
83.0
20
11.6
40
0.0
41
0.0
42
0.414213588857773
10
86.0
20
8.6
40
0.0
41
0.0
42
0.0
10
95.0
20
8.6
40
0.0
41
0.0
42
0.414213588857773
10
98.0
20
11.6
40
0.0
41
0.0
42
0.0
10
98.0
20
20.6
40
0.0
41
0.0
42
0.414213588857773
10
95.0
20
23.6
40
0.0
41
0.0
42
0.0
10
86.0
20
23.6
40
0.0
41
0.0
42
0.414213588857773
10
83.0
20
20.6
40
0.0
41
0.0
42
0.0
210
0.0
220
0.0
230
1.0
0
LWPOLYLINE
5
49
330
1C
100
AcDbEntity
67
0
8
BlackLayer
62
4
6
ByLayer
370
-1
48
1.0
60
0
100
AcDbPolyline
90
8
70
1
38
0.0
39
0.0
10
83.0
20
30.2
40
0.0
41
0.0
42
0.414213588857773
10
86.0
20
27.2
40
0.0
41
0.0
42
0.0
10
95.0
20
27.2
40
0.0
41
0.0
42
0.414213588857773
10
98.0
20
30.2
40
0.0
41
0.0
42
0.0
10
98.0
20
39.2
40
0.0
41
0.0
42
0.414213588857773
10
95.0
20
42.2
40
0.0
41
0.0
42
0.0
10
86.0
20
42.2
40
0.0
41
0.0
42
0.414213588857773
10
83.0
20
39.2
40
0.0
41
0.0
42
0.0
210
0.0
220
0.0
230
1.0
0
LWPOLYLINE
5
4A
330
1C
100
AcDbEntity
67
0
8
BlackLayer
62
4
6
ByLayer
370
-1
48
1.0
60
0
100
AcDbPolyline
90
8
70
1
38
0.0
39
0.0
10
83.0
20
48.8
40
0.0
41
0.0
42
0.414213588857773
10
86.0
20
45.8
40
0.0
41
0.0
42
0.0
10
95.0
20
45.8
40
0.0
41
0.0
42
0.414213588857773
10
98.0
20
48.8
40
0.0
41
0.0
42
0.0
10
98.0
20
57.8
40
0.0
41
0.0
42
0.414213588857773
10
95.0
20
60.8
40
0.0
41
0.0
42
0.0
10
86.0
20
60.8
40
0.0
41
0.0
42
0.414213588857773
10
83.0
20
57.8
40
0.0
41
0.0
42
0.0
210
0.0
220
0.0
230
1.0
0
LWPOLYLINE
5
4B
330
1C
100
AcDbEntity
67
0
8
BlackLayer
62
4
6
ByLayer
370
-1
48
1.0
60
0
100
AcDbPolyline
90
8
70
1
38
0.0
39
0.0
10
83.0
20
67.4
40
0.0
41
0.0
42
0.414213588857773
10
86.0
20
64.4
40
0.0
41
0.0
42
0.0
10
95.0
20
64.4
40
0.0
41
0.0
42
0.414213588857773
10
98.0
20
67.4
40
0.0
41
0.0
42
0.0
10
98.0
20
76.4
40
0.0
41
0.0
42
0.414213588857773
10
95.0
20
79.4
40
0.0
41
0.0
42
0.0
10
86.0
20
79.4
40
0.0
41
0.0
42
0.414213588857773
10
83.0
20
76.4
40
0.0
41
0.0
42
0.0
210
0.0
220
0.0
230
1.0
0
LWPOLYLINE
5
4C
330
1C
100
AcDbEntity
67
0
8
BlackLayer
62
4
6
ByLayer
370
-1
48
1.0
60
0
100
AcDbPolyline
90
8
70
1
38
0.0
39
0.0
10
83.0
20
86.0
40
0.0
41
0.0
42
0.414213588857773
10
86.0
20
83.0
40
0.0
41
0.0
42
0.0
10
95.0
20
83.0
40
0.0
41
0.0
42
0.414213588857773
10
98.0
20
86.0
40
0.0
41
0.0
42
0.0
10
98.0
20
95.0
40
0.0
41
0.0
42
0.414213588857773
10
95.0
20
98.0
40
0.0
41
0.0
42
0.0
10
86.0
20
98.0
40
0.0
41
0.0
42
0.414213588857773
10
83.0
20
95.0
40
0.0
41
0.0
42
0.0
210
0.0
220
0.0
230
1.0
0
LWPOLYLINE
5
4D
330
1C
100
AcDbEntity
67
0
8
BlackLayer
62
4
6
ByLayer
370
-1
48
1.0
60
0
100
AcDbPolyline
90
8
70
1
38
0.0
39
0.0
10
83.0
20
104.6
40
0.0
41
0.0
42
0.414213588857773
10
86.0
20
101.6
40
0.0
41
0.0
42
0.0
10
95.0
20
101.6
40
0.0
41
0.0
42
0.414213588857773
10
98.0
20
104.6
40
0.0
41
0.0
42
0.0
10
98.0
20
113.6
40
0.0
41
0.0
42
0.414213588857773
10
95.0
20
116.6
40
0.0
41
0.0
42
0.0
10
86.0
20
116.6
40
0.0
41
0.0
42
0.414213588857773
10
83.0
20
113.6
40
0.0
41
0.0
42
0.0
210
0.0
220
0.0
230
1.0
0
LWPOLYLINE
5
4E
330
1C
100
AcDbEntity
67
0
8
BlackLayer
62
4
6
ByLayer
370
-1
48
1.0
60
0
100
AcDbPolyline
90
8
70
1
38
0.0
39
0.0
10
83.0
20
123.2
40
0.0
41
0.0
42
0.414213588857773
10
86.0
20
120.2
40
0.0
41
0.0
42
0.0
10
95.0
20
120.2
40
0.0
41
0.0
42
0.414213588857773
10
98.0
20
123.2
40
0.0
41
0.0
42
0.0
10
98.0
20
132.2
40
0.0
41
0.0
42
0.414213588857771
10
95.0
20
135.2
40
0.0
41
0.0
42
0.0
10
86.0
20
135.2
40
0.0
41
0.0
42
0.414213588857771
10
83.0
20
132.2
40
0.0
41
0.0
42
0.0
210
0.0
220
0.0
230
1.0
0
LWPOLYLINE
5
4F
330
1C
100
AcDbEntity
67
0
8
BlackLayer
62
4
6
ByLayer
370
-1
48
1.0
60
0
100
AcDbPolyline
90
8
70
1
38
0.0
39
0.0
10
83.0
20
141.8
40
0.0
41
0.0
42
0.414213588857771
10
86.0
20
138.8
40
0.0
41
0.0
42
0.0
10
95.0
20
138.8
40
0.0
41
0.0
42
0.414213588857771
10
98.0
20
141.8
40
0.0
41
0.0
42
0.0
10
98.0
20
150.8
40
0.0
41
0.0
42
0.414213588857771
10
95.0
20
153.8
40
0.0
41
0.0
42
0.0
10
86.0
20
153.8
40
0.0
41
0.0
42
0.414213588857771
10
83.0
20
150.8
40
0.0
41
0.0
42
0.0
210
0.0
220
0.0
230
1.0
0
LWPOLYLINE
5
50
330
1C
100
AcDbEntity
67
0
8
BlackLayer
62
4
6
ByLayer
370
-1
48
1.0
60
0
100
AcDbPolyline
90
8
70
1
38
0.0
39
0.0
10
83.0
20
160.4
40
0.0
41
0.0
42
0.414213588857771
10
86.0
20
157.4
40
0.0
41
0.0
42
0.0
10
95.0
20
157.4
40
0.0
41
0.0
42
0.414213588857771
10
98.0
20
160.4
40
0.0
41
0.0
42
0.0
10
98.0
20
169.4
40
0.0
41
0.0
42
0.414213588857771
10
95.0
20
172.4
40
0.0
41
0.0
42
0.0
10
86.0
20
172.4
40
0.0
41
0.0
42
0.414213588857771
10
83.0
20
169.4
40
0.0
41
0.0
42
0.0
210
0.0
220
0.0
230
1.0
0
LWPOLYLINE
5
51
330
1C
100
AcDbEntity
67
0
8
BlackLayer
62
4
6
ByLayer
370
-1
48
1.0
60
0
100
AcDbPolyline
90
8
70
1
38
0.0
39
0.0
10
101.6
20
11.6
40
0.0
41
0.0
42
0.414213588857773
10
104.6
20
8.6
40
0.0
41
0.0
42
0.0
10
113.6
20
8.6
40
0.0
41
0.0
42
0.414213588857773
10
116.6
20
11.6
40
0.0
41
0.0
42
0.0
10
116.6
20
20.6
40
0.0
41
0.0
42
0.414213588857773
10
113.6
20
23.6
40
0.0
41
0.0
42
0.0
10
104.6
20
23.6
40
0.0
41
0.0
42
0.414213588857773
10
101.6
20
20.6
40
0.0
41
0.0
42
0.0
210
0.0
220
0.0
230
1.0
0
LWPOLYLINE
5
52
330
1C
100
AcDbEntity
67
0
8
BlackLayer
62
4
6
ByLayer
370
-1
48
1.0
60
0
100
AcDbPolyline
90
8
70
1
38
0.0
39
0.0
10
101.6
20
30.2
40
0.0
41
0.0
42
0.414213588857773
10
104.6
20
27.2
40
0.0
41
0.0
42
0.0
10
113.6
20
27.2
40
0.0
41
0.0
42
0.414213588857773
10
116.6
20
30.2
40
0.0
41
0.0
42
0.0
10
116.6
20
39.2
40
0.0
41
0.0
42
0.414213588857773
10
113.6
20
42.2
40
0.0
41
0.0
42
0.0
10
104.6
20
42.2
40
0.0
41
0.0
42
0.414213588857773
10
101.6
20
39.2
40
0.0
41
0.0
42
0.0
210
0.0
220
0.0
230
1.0
0
LWPOLYLINE
5
53
330
1C
100
AcDbEntity
67
0
8
BlackLayer
62
4
6
ByLayer
370
-1
48
1.0
60
0
100
AcDbPolyline
90
8
70
1
38
0.0
39
0.0
10
101.6
20
48.8
40
0.0
41
0.0
42
0.414213588857773
10
104.6
20
45.8
40
0.0
41
0.0
42
0.0
10
113.6
20
45.8
40
0.0
41
0.0
42
0.414213588857773
10
116.6
20
48.8
40
0.0
41
0.0
42
0.0
10
116.6
20
57.8
40
0.0
41
0.0
42
0.414213588857773
10
113.6
20
60.8
40
0.0
41
0.0
42
0.0
10
104.6
20
60.8
40
0.0
41
0.0
42
0.414213588857773
10
101.6
20
57.8
40
0.0
41
0.0
42
0.0
210
0.0
220
0.0
230
1.0
0
LWPOLYLINE
5
54
330
1C
100
AcDbEntity
67
0
8
BlackLayer
62
4
6
ByLayer
370
-1
48
1.0
60
0
100
AcDbPolyline
90
8
70
1
38
0.0
39
0.0
10
101.6
20
67.4
40
0.0
41
0.0
42
0.414213588857773
10
104.6
20
64.4
40
0.0
41
0.0
42
0.0
10
113.6
20
64.4
40
0.0
41
0.0
42
0.414213588857773
10
116.6
20
67.4
40
0.0
41
0.0
42
0.0
10
116.6
20
76.4
40
0.0
41
0.0
42
0.414213588857773
10
113.6
20
79.4
40
0.0
41
0.0
42
0.0
10
104.6
20
79.4
40
0.0
41
0.0
42
0.414213588857773
10
101.6
20
76.4
40
0.0
41
0.0
42
0.0
210
0.0
220
0.0
230
1.0
0
LWPOLYLINE
5
55
330
1C
100
AcDbEntity
67
0
8
BlackLayer
62
4
6
ByLayer
370
-1
48
1.0
60
0
100
AcDbPolyline
90
8
70
1
38
0.0
39
0.0
10
101.6
20
86.0
40
0.0
41
0.0
42
0.414213588857773
10
104.6
20
83.0
40
0.0
41
0.0
42
0.0
10
113.6
20
83.0
40
0.0
41
0.0
42
0.414213588857773
10
116.6
20
86.0
40
0.0
41
0.0
42
0.0
10
116.6
20
95.0
40
0.0
41
0.0
42
0.414213588857773
10
113.6
20
98.0
40
0.0
41
0.0
42
0.0
10
104.6
20
98.0
40
0.0
41
0.0
42
0.414213588857773
10
101.6
20
95.0
40
0.0
41
0.0
42
0.0
210
0.0
220
0.0
230
1.0
0
LWPOLYLINE
5
56
330
1C
100
AcDbEntity
67
0
8
BlackLayer
62
4
6
ByLayer
370
-1
48
1.0
60
0
100
AcDbPolyline
90
8
70
1
38
0.0
39
0.0
10
101.6
20
104.6
40
0.0
41
0.0
42
0.414213588857773
10
104.6
20
101.6
40
0.0
41
0.0
42
0.0
10
113.6
20
101.6
40
0.0
41
0.0
42
0.414213588857773
10
116.6
20
104.6
40
0.0
41
0.0
42
0.0
10
116.6
20
113.6
40
0.0
41
0.0
42
0.414213588857773
10
113.6
20
116.6
40
0.0
41
0.0
42
0.0
10
104.6
20
116.6
40
0.0
41
0.0
42
0.414213588857773
10
101.6
20
113.6
40
0.0
41
0.0
42
0.0
210
0.0
220
0.0
230
1.0
0
LWPOLYLINE
5
57
330
1C
100
AcDbEntity
67
0
8
BlackLayer
62
4
6
ByLayer
370
-1
48
1.0
60
0
100
AcDbPolyline
90
8
70
1
38
0.0
39
0.0
10
101.6
20
123.2
40
0.0
41
0.0
42
0.414213588857773
10
104.6
20
120.2
40
0.0
41
0.0
42
0.0
10
113.6
20
120.2
40
0.0
41
0.0
42
0.414213588857773
10
116.6
20
123.2
40
0.0
41
0.0
42
0.0
10
116.6
20
132.2
40
0.0
41
0.0
42
0.414213588857771
10
113.6
20
135.2
40
0.0
41
0.0
42
0.0
10
104.6
20
135.2
40
0.0
41
0.0
42
0.414213588857771
10
101.6
20
132.2
40
0.0
41
0.0
42
0.0
210
0.0
220
0.0
230
1.0
0
LWPOLYLINE
5
58
330
1C
100
AcDbEntity
67
0
8
BlackLayer
62
4
6
ByLayer
370
-1
48
1.0
60
0
100
AcDbPolyline
90
8
70
1
38
0.0
39
0.0
10
101.6
20
141.8
40
0.0
41
0.0
42
0.414213588857771
10
104.6
20
138.8
40
0.0
41
0.0
42
0.0
10
113.6
20
138.8
40
0.0
41
0.0
42
0.414213588857771
10
116.6
20
141.8
40
0.0
41
0.0
42
0.0
10
116.6
20
150.8
40
0.0
41
0.0
42
0.414213588857771
10
113.6
20
153.8
40
0.0
41
0.0
42
0.0
10
104.6
20
153.8
40
0.0
41
0.0
42
0.414213588857771
10
101.6
20
150.8
40
0.0
41
0.0
42
0.0
210
0.0
220
0.0
230
1.0
0
LWPOLYLINE
5
59
330
1C
100
AcDbEntity
67
0
8
BlackLayer
62
4
6
ByLayer
370
-1
48
1.0
60
0
100
AcDbPolyline
90
8
70
1
38
0.0
39
0.0
10
101.6
20
160.4
40
0.0
41
0.0
42
0.414213588857771
10
104.6
20
157.4
40
0.0
41
0.0
42
0.0
10
113.6
20
157.4
40
0.0
41
0.0
42
0.414213588857771
10
116.6
20
160.4
40
0.0
41
0.0
42
0.0
10
116.6
20
169.4
40
0.0
41
0.0
42
0.414213588857771
10
113.6
20
172.4
40
0.0
41
0.0
42
0.0
10
104.6
20
172.4
40
0.0
41
0.0
42
0.414213588857771
10
101.6
20
169.4
40
0.0
41
0.0
42
0.0
210
0.0
220
0.0
230
1.0
0
LWPOLYLINE
5
5A
330
1C
100
AcDbEntity
67
0
8
BlackLayer
62
4
6
ByLayer
370
-1
48
1.0
60
0
100
AcDbPolyline
90
8
70
1
38
0.0
39
0.0
10
120.2
20
11.6
40
0.0
41
0.0
42
0.414213588857773
10
123.2
20
8.6
40
0.0
41
0.0
42
0.0
10
132.2
20
8.6
40
0.0
41
0.0
42
0.414213588857771
10
135.2
20
11.6
40
0.0
41
0.0
42
0.0
10
135.2
20
20.6
40
0.0
41
0.0
42
0.414213588857771
10
132.2
20
23.6
40
0.0
41
0.0
42
0.0
10
123.2
20
23.6
40
0.0
41
0.0
42
0.414213588857773
10
120.2
20
20.6
40
0.0
41
0.0
42
0.0
210
0.0
220
0.0
230
1.0
0
LWPOLYLINE
5
5B
330
1C
100
AcDbEntity
67
0
8
BlackLayer
62
4
6
ByLayer
370
-1
48
1.0
60
0
100
AcDbPolyline
90
8
70
1
38
0.0
39
0.0
10
120.2
20
30.2
40
0.0
41
0.0
42
0.414213588857773
10
123.2
20
27.2
40
0.0
41
0.0
42
0.0
10
132.2
20
27.2
40
0.0
41
0.0
42
0.414213588857771
10
135.2
20
30.2
40
0.0
41
0.0
42
0.0
10
135.2
20
39.2
40
0.0
41
0.0
42
0.414213588857771
10
132.2
20
42.2
40
0.0
41
0.0
42
0.0
10
123.2
20
42.2
40
0.0
41
0.0
42
0.414213588857773
10
120.2
20
39.2
40
0.0
41
0.0
42
0.0
210
0.0
220
0.0
230
1.0
0
LWPOLYLINE
5
5C
330
1C
100
AcDbEntity
67
0
8
BlackLayer
62
4
6
ByLayer
370
-1
48
1.0
60
0
100
AcDbPolyline
90
8
70
1
38
0.0
39
0.0
10
120.2
20
48.8
40
0.0
41
0.0
42
0.414213588857773
10
123.2
20
45.8
40
0.0
41
0.0
42
0.0
10
132.2
20
45.8
40
0.0
41
0.0
42
0.414213588857771
10
135.2
20
48.8
40
0.0
41
0.0
42
0.0
10
135.2
20
57.8
40
0.0
41
0.0
42
0.414213588857771
10
132.2
20
60.8
40
0.0
41
0.0
42
0.0
10
123.2
20
60.8
40
0.0
41
0.0
42
0.414213588857773
10
120.2
20
57.8
40
0.0
41
0.0
42
0.0
210
0.0
220
0.0
230
1.0
0
LWPOLYLINE
5
5D
330
1C
100
AcDbEntity
67
0
8
BlackLayer
62
4
6
ByLayer
370
-1
48
1.0
60
0
100
AcDbPolyline
90
8
70
1
38
0.0
39
0.0
10
120.2
20
67.4
40
0.0
41
0.0
42
0.414213588857773
10
123.2
20
64.4
40
0.0
41
0.0
42
0.0
10
132.2
20
64.4
40
0.0
41
0.0
42
0.414213588857771
10
135.2
20
67.4
40
0.0
41
0.0
42
0.0
10
135.2
20
76.4
40
0.0
41
0.0
42
0.414213588857771
10
132.2
20
79.4
40
0.0
41
0.0
42
0.0
10
123.2
20
79.4
40
0.0
41
0.0
42
0.414213588857773
10
120.2
20
76.4
40
0.0
41
0.0
42
0.0
210
0.0
220
0.0
230
1.0
0
LWPOLYLINE
5
5E
330
1C
100
AcDbEntity
67
0
8
BlackLayer
62
4
6
ByLayer
370
-1
48
1.0
60
0
100
AcDbPolyline
90
8
70
1
38
0.0
39
0.0
10
120.2
20
86.0
40
0.0
41
0.0
42
0.414213588857773
10
123.2
20
83.0
40
0.0
41
0.0
42
0.0
10
132.2
20
83.0
40
0.0
41
0.0
42
0.414213588857771
10
135.2
20
86.0
40
0.0
41
0.0
42
0.0
10
135.2
20
95.0
40
0.0
41
0.0
42
0.414213588857771
10
132.2
20
98.0
40
0.0
41
0.0
42
0.0
10
123.2
20
98.0
40
0.0
41
0.0
42
0.414213588857773
10
120.2
20
95.0
40
0.0
41
0.0
42
0.0
210
0.0
220
0.0
230
1.0
0
LWPOLYLINE
5
5F
330
1C
100
AcDbEntity
67
0
8
BlackLayer
62
4
6
ByLayer
370
-1
48
1.0
60
0
100
AcDbPolyline
90
8
70
1
38
0.0
39
0.0
10
120.2
20
104.6
40
0.0
41
0.0
42
0.414213588857773
10
123.2
20
101.6
40
0.0
41
0.0
42
0.0
10
132.2
20
101.6
40
0.0
41
0.0
42
0.414213588857771
10
135.2
20
104.6
40
0.0
41
0.0
42
0.0
10
135.2
20
113.6
40
0.0
41
0.0
42
0.414213588857771
10
132.2
20
116.6
40
0.0
41
0.0
42
0.0
10
123.2
20
116.6
40
0.0
41
0.0
42
0.414213588857773
10
120.2
20
113.6
40
0.0
41
0.0
42
0.0
210
0.0
220
0.0
230
1.0
0
LWPOLYLINE
5
60
330
1C
100
AcDbEntity
67
0
8
BlackLayer
62
4
6
ByLayer
370
-1
48
1.0
60
0
100
AcDbPolyline
90
8
70
1
38
0.0
39
0.0
10
120.2
20
123.2
40
0.0
41
0.0
42
0.414213588857773
10
123.2
20
120.2
40
0.0
41
0.0
42
0.0
10
132.2
20
120.2
40
0.0
41
0.0
42
0.414213588857771
10
135.2
20
123.2
40
0.0
41
0.0
42
0.0
10
135.2
20
132.2
40
0.0
41
0.0
42
0.41421358885777
10
132.2
20
135.2
40
0.0
41
0.0
42
0.0
10
123.2
20
135.2
40
0.0
41
0.0
42
0.414213588857771
10
120.2
20
132.2
40
0.0
41
0.0
42
0.0
210
0.0
220
0.0
230
1.0
0
LWPOLYLINE
5
61
330
1C
100
AcDbEntity
67
0
8
BlackLayer
62
4
6
ByLayer
370
-1
48
1.0
60
0
100
AcDbPolyline
90
8
70
1
38
0.0
39
0.0
10
120.2
20
141.8
40
0.0
41
0.0
42
0.414213588857771
10
123.2
20
138.8
40
0.0
41
0.0
42
0.0
10
132.2
20
138.8
40
0.0
41
0.0
42
0.41421358885777
10
135.2
20
141.8
40
0.0
41
0.0
42
0.0
10
135.2
20
150.8
40
0.0
41
0.0
42
0.41421358885777
10
132.2
20
153.8
40
0.0
41
0.0
42
0.0
10
123.2
20
153.8
40
0.0
41
0.0
42
0.414213588857771
10
120.2
20
150.8
40
0.0
41
0.0
42
0.0
210
0.0
220
0.0
230
1.0
0
LWPOLYLINE
5
62
330
1C
100
AcDbEntity
67
0
8
BlackLayer
62
4
6
ByLayer
370
-1
48
1.0
60
0
100
AcDbPolyline
90
8
70
1
38
0.0
39
0.0
10
120.2
20
160.4
40
0.0
41
0.0
42
0.414213588857771
10
123.2
20
157.4
40
0.0
41
0.0
42
0.0
10
132.2
20
157.4
40
0.0
41
0.0
42
0.41421358885777
10
135.2
20
160.4
40
0.0
41
0.0
42
0.0
10
135.2
20
169.4
40
0.0
41
0.0
42
0.41421358885777
10
132.2
20
172.4
40
0.0
41
0.0
42
0.0
10
123.2
20
172.4
40
0.0
41
0.0
42
0.414213588857771
10
120.2
20
169.4
40
0.0
41
0.0
42
0.0
210
0.0
220
0.0
230
1.0
0
LWPOLYLINE
5
63
330
1C
100
AcDbEntity
67
0
8
BlackLayer
62
4
6
ByLayer
370
-1
48
1.0
60
0
100
AcDbPolyline
90
8
70
1
38
0.0
39
0.0
10
138.8
20
11.6
40
0.0
41
0.0
42
0.414213588857771
10
141.8
20
8.6
40
0.0
41
0.0
42
0.0
10
150.8
20
8.6
40
0.0
41
0.0
42
0.414213588857771
10
153.8
20
11.6
40
0.0
41
0.0
42
0.0
10
153.8
20
20.6
40
0.0
41
0.0
42
0.414213588857771
10
150.8
20
23.6
40
0.0
41
0.0
42
0.0
10
141.8
20
23.6
40
0.0
41
0.0
42
0.414213588857771
10
138.8
20
20.6
40
0.0
41
0.0
42
0.0
210
0.0
220
0.0
230
1.0
0
LWPOLYLINE
5
64
330
1C
100
AcDbEntity
67
0
8
BlackLayer
62
4
6
ByLayer
370
-1
48
1.0
60
0
100
AcDbPolyline
90
8
70
1
38
0.0
39
0.0
10
138.8
20
30.2
40
0.0
41
0.0
42
0.414213588857771
10
141.8
20
27.2
40
0.0
41
0.0
42
0.0
10
150.8
20
27.2
40
0.0
41
0.0
42
0.414213588857771
10
153.8
20
30.2
40
0.0
41
0.0
42
0.0
10
153.8
20
39.2
40
0.0
41
0.0
42
0.414213588857771
10
150.8
20
42.2
40
0.0
41
0.0
42
0.0
10
141.8
20
42.2
40
0.0
41
0.0
42
0.414213588857771
10
138.8
20
39.2
40
0.0
41
0.0
42
0.0
210
0.0
220
0.0
230
1.0
0
LWPOLYLINE
5
65
330
1C
100
AcDbEntity
67
0
8
BlackLayer
62
4
6
ByLayer
370
-1
48
1.0
60
0
100
AcDbPolyline
90
8
70
1
38
0.0
39
0.0
10
138.8
20
48.8
40
0.0
41
0.0
42
0.414213588857771
10
141.8
20
45.8
40
0.0
41
0.0
42
0.0
10
150.8
20
45.8
40
0.0
41
0.0
42
0.414213588857771
10
153.8
20
48.8
40
0.0
41
0.0
42
0.0
10
153.8
20
57.8
40
0.0
41
0.0
42
0.414213588857771
10
150.8
20
60.8
40
0.0
41
0.0
42
0.0
10
141.8
20
60.8
40
0.0
41
0.0
42
0.414213588857771
10
138.8
20
57.8
40
0.0
41
0.0
42
0.0
210
0.0
220
0.0
230
1.0
0
LWPOLYLINE
5
66
330
1C
100
AcDbEntity
67
0
8
BlackLayer
62
4
6
ByLayer
370
-1
48
1.0
60
0
100
AcDbPolyline
90
8
70
1
38
0.0
39
0.0
10
138.8
20
67.4
40
0.0
41
0.0
42
0.414213588857771
10
141.8
20
64.4
40
0.0
41
0.0
42
0.0
10
150.8
20
64.4
40
0.0
41
0.0
42
0.414213588857771
10
153.8
20
67.4
40
0.0
41
0.0
42
0.0
10
153.8
20
76.4
40
0.0
41
0.0
42
0.414213588857771
10
150.8
20
79.4
40
0.0
41
0.0
42
0.0
10
141.8
20
79.4
40
0.0
41
0.0
42
0.414213588857771
10
138.8
20
76.4
40
0.0
41
0.0
42
0.0
210
0.0
220
0.0
230
1.0
0
LWPOLYLINE
5
67
330
1C
100
AcDbEntity
67
0
8
BlackLayer
62
4
6
ByLayer
370
-1
48
1.0
60
0
100
AcDbPolyline
90
8
70
1
38
0.0
39
0.0
10
138.8
20
86.0
40
0.0
41
0.0
42
0.414213588857771
10
141.8
20
83.0
40
0.0
41
0.0
42
0.0
10
150.8
20
83.0
40
0.0
41
0.0
42
0.414213588857771
10
153.8
20
86.0
40
0.0
41
0.0
42
0.0
10
153.8
20
95.0
40
0.0
41
0.0
42
0.414213588857771
10
150.8
20
98.0
40
0.0
41
0.0
42
0.0
10
141.8
20
98.0
40
0.0
41
0.0
42
0.414213588857771
10
138.8
20
95.0
40
0.0
41
0.0
42
0.0
210
0.0
220
0.0
230
1.0
0
LWPOLYLINE
5
68
330
1C
100
AcDbEntity
67
0
8
BlackLayer
62
4
6
ByLayer
370
-1
48
1.0
60
0
100
AcDbPolyline
90
8
70
1
38
0.0
39
0.0
10
138.8
20
104.6
40
0.0
41
0.0
42
0.414213588857771
10
141.8
20
101.6
40
0.0
41
0.0
42
0.0
10
150.8
20
101.6
40
0.0
41
0.0
42
0.414213588857771
10
153.8
20
104.6
40
0.0
41
0.0
42
0.0
10
153.8
20
113.6
40
0.0
41
0.0
42
0.414213588857771
10
150.8
20
116.6
40
0.0
41
0.0
42
0.0
10
141.8
20
116.6
40
0.0
41
0.0
42
0.414213588857771
10
138.8
20
113.6
40
0.0
41
0.0
42
0.0
210
0.0
220
0.0
230
1.0
0
LWPOLYLINE
5
69
330
1C
100
AcDbEntity
67
0
8
BlackLayer
62
4
6
ByLayer
370
-1
48
1.0
60
0
100
AcDbPolyline
90
8
70
1
38
0.0
39
0.0
10
138.8
20
123.2
40
0.0
41
0.0
42
0.414213588857771
10
141.8
20
120.2
40
0.0
41
0.0
42
0.0
10
150.8
20
120.2
40
0.0
41
0.0
42
0.414213588857771
10
153.8
20
123.2
40
0.0
41
0.0
42
0.0
10
153.8
20
132.2
40
0.0
41
0.0
42
0.41421358885777
10
150.8
20
135.2
40
0.0
41
0.0
42
0.0
10
141.8
20
135.2
40
0.0
41
0.0
42
0.41421358885777
10
138.8
20
132.2
40
0.0
41
0.0
42
0.0
210
0.0
220
0.0
230
1.0
0
LWPOLYLINE
5
6A
330
1C
100
AcDbEntity
67
0
8
BlackLayer
62
4
6
ByLayer
370
-1
48
1.0
60
0
100
AcDbPolyline
90
8
70
1
38
0.0
39
0.0
10
138.8
20
141.8
40
0.0
41
0.0
42
0.41421358885777
10
141.8
20
138.8
40
0.0
41
0.0
42
0.0
10
150.8
20
138.8
40
0.0
41
0.0
42
0.41421358885777
10
153.8
20
141.8
40
0.0
41
0.0
42
0.0
10
153.8
20
150.8
40
0.0
41
0.0
42
0.41421358885777
10
150.8
20
153.8
40
0.0
41
0.0
42
0.0
10
141.8
20
153.8
40
0.0
41
0.0
42
0.41421358885777
10
138.8
20
150.8
40
0.0
41
0.0
42
0.0
210
0.0
220
0.0
230
1.0
0
LWPOLYLINE
5
6B
330
1C
100
AcDbEntity
67
0
8
BlackLayer
62
4
6
ByLayer
370
-1
48
1.0
60
0
100
AcDbPolyline
90
8
70
1
38
0.0
39
0.0
10
138.8
20
160.4
40
0.0
41
0.0
42
0.41421358885777
10
141.8
20
157.4
40
0.0
41
0.0
42
0.0
10
150.8
20
157.4
40
0.0
41
0.0
42
0.41421358885777
10
153.8
20
160.4
40
0.0
41
0.0
42
0.0
10
153.8
20
169.4
40
0.0
41
0.0
42
0.41421358885777
10
150.8
20
172.4
40
0.0
41
0.0
42
0.0
10
141.8
20
172.4
40
0.0
41
0.0
42
0.41421358885777
10
138.8
20
169.4
40
0.0
41
0.0
42
0.0
210
0.0
220
0.0
230
1.0
0
VIEWPORT
5
70
330
6C
100
AcDbEntity
67
1
8
0
62
256
6
ByLayer
370
-1
48
1.0
60
0
100
AcDbViewport
10
0.0
20
0.0
30
0.0
40
297.0
41
210.0
68
1
69
1
12
50.0
22
100.0
13
0.0
23
0.0
14
10.0
24
10.0
15
10.0
25
10.0
16
0.0
26
0.0
36
1.0
17
0.0
27
0.0
37
0.0
42
50.0
43
0.0
44
0.0
45
250.0
50
0.0
51
0.0
72
1000
90
819232
110
0.0
120
0.0
130
0.0
111
1.0
121
0.0
131
0.0
112
0.0
122
1.0
132
0.0
0
ENDSEC
0
SECTION
2
OBJECTS
0
DICTIONARY
5
76
330
0
100
AcDbDictionary
280
1
281
1
3
ACAD_GROUP
350
12
3
ACAD_LAYOUT
350
6F
3
ACAD_DGNDEFINITIONS
350
F
3
ACAD_DWFDEFINITIONS
350
10
3
ACAD_PDFDEFINITIONS
350
11
3
ACAD_MLINESTYLE
350
B
3
ACAD_IMAGE_DICT
350
E
3
ACAD_IMAGE_VARS
350
21
0
DICTIONARY
5
12
330
76
100
AcDbDictionary
280
1
281
1
0
DICTIONARY
5
6F
330
76
100
AcDbDictionary
280
1
281
1
3
Model
350
20
3
Layout1
350
71
0
DICTIONARY
5
F
330
76
100
AcDbDictionary
280
1
281
1
0
DICTIONARY
5
10
330
76
100
AcDbDictionary
280
1
281
1
0
DICTIONARY
5
11
330
76
100
AcDbDictionary
280
1
281
1
0
DICTIONARY
5
B
330
76
100
AcDbDictionary
280
1
281
1
3
Standard
350
1B
0
DICTIONARY
5
E
330
76
100
AcDbDictionary
280
1
281
1
0
DICTIONARY
5
6
330
5
100
AcDbDictionary
280
1
281
1
3
ACAD_LAYERSTATES
360
77
0
DICTIONARY
5
77
330
6
100
AcDbDictionary
280
1
281
1
0
LAYOUT
5
20
330
6F
100
AcDbPlotSettings
1

2
none_device
4
ISO_A4_(210.00_x_297.00_MM)
6

40
7.5
41
20.0
42
7.5
43
20.0
44
210.0
45
297.0
46
0.0
47
0.0
48
0.0
49
0.0
140
0.0
141
0.0
142
1.0
143
1.0
70
11952
72
1
73
1
74
1
7

75
0
76
0
77
2
78
300
147
1.0
148
0.0
149
0.0
100
AcDbLayout
1
Model
71
0
10
-20.0
20
-7.5
11
277.0
21
202.5
12
0.0
22
0.0
32
0.0
14
25.7
24
19.5
34
0.0
15
231.3
25
175.5
35
0.0
146
0.0
13
0.0
23
0.0
33
0.0
16
1.0
26
0.0
36
0.0
17
0.0
27
1.0
37
0.0
76
0
330
1C
0
LAYOUT
5
71
330
6F
100
AcDbPlotSettings
1

2
none_device
4
ISO_A4_(210.00_x_297.00_MM)
6

40
7.5
41
20.0
42
7.5
43
20.0
44
210.0
45
297.0
46
0.0
47
0.0
48
0.0
49
0.0
140
0.0
141
0.0
142
1.0
143
1.0
70
688
72
1
73
1
74
1
7

75
0
76
0
77
2
78
300
147
1.0
148
0.0
149
0.0
100
AcDbLayout
1
Layout1
71
1
10
-20.0
20
-7.5
11
277.0
21
202.5
12
0.0
22
0.0
32
0.0
14
25.7
24
19.5
34
0.0
15
231.3
25
175.5
35
0.0
146
0.0
13
0.0
23
0.0
33
0.0
16
1.0
26
0.0
36
0.0
17
0.0
27
1.0
37
0.0
76
0
330
6C
0
MLINESTYLE
5
1B
330
B
100
AcDbMlineStyle
2
Standard
70
0
3

62
256
51
90.0
52
90.0
71
2
49
0.5
62
256
6
ByLayer
49
-0.5
62
256
6
ByLayer
0
RASTERVARIABLES
5
21
330
E
100
AcDbRasterVariables
90
0
70
1
71
1
72
0
0
ENDSEC
0
EOF
